
<svg role="img" viewBox="0 0 168 168" xmlns="http://www.w3.org/2000/svg">
<g fill="#1ED760"><path d="M84 0a84 84 0 100 168 84 84 0 000-168zm38.25 120.75c-1.5 2.25-4.5 3-6.75 1.5-18.75-11.25-42.75-13.5-70.5-6.75-2.25.75-4.5-1.5-5.25-3.75s1.5-4.5 3.75-5.25c30.75-7.5 57.75-4.5 79.5 8.25 2.25 1.5 3 4.5 1.5 6.75zm9-21c-2.25 3-6 3.75-9 1.5-21.75-13.5-54.75-17.25-80.25-8.25-3 .75-6.75-.75-7.5-3.75-.75-3 .75-6.75 3.75-7.5 30.75-9.75 67.5-5.25 93 10.5 3 1.5 3.75 5.25 1.5 7.5zM132 78c-27-16.5-71.25-18-97.5-8.25-3.75 1.5-8.25-.75-9.75-4.5-1.5-3.75.75-8.25 4.5-9.75 30.75-10.5 81.75-9 113.25 10.5 3.75 2.25 4.5 7.5 2.25 11.25-2.25 3.75-7.5 4.5-11.25 2.25z"></path></g>
</svg>
